<?xml version="1.0" encoding="UTF-8" standalone="no"?>
<svg width="19px" height="23px" viewBox="0 0 19 23" version="1.1" xmlns="http://www.w3.org/2000/svg" xmlns:xlink="http://www.w3.org/1999/xlink">
    <!-- Generator: Sketch 3.6.1 (26313) - http://www.bohemiancoding.com/sketch -->
    <title>icon-person</title>
    <desc>Created with Sketch.</desc>
    <defs></defs>
    <g id="Page-1" stroke="none" stroke-width="1" fill="none" fill-rule="evenodd">
        <path d="M14.2138005,15.1398536 L12.977472,15.1398536 C12.3362359,15.1398536 11.8159278,14.6211366 11.8159278,13.9799005 C11.8159278,13.7428182 11.9113972,13.5136917 12.0816509,13.3482114 C12.8008536,12.6496937 13.4054931,11.7093203 13.8430611,10.6957536 C13.9321658,10.760991 14.0276352,10.8087257 14.1358339,10.8087257 C14.8295781,10.8087257 15.6474325,9.27485092 15.6474325,8.22946114 C15.6474325,7.18407135 15.5503719,6.33598497 14.8550366,6.33598497 C14.7722964,6.33598497 14.686374,6.35030537 14.5972692,6.37258156 C14.5479434,3.53714078 13.831923,0 9.50238629,0 C4.98509314,0 4.45842036,3.53077615 4.40750335,6.36303463 C4.3438571,6.35030537 4.28021084,6.33598497 4.22133805,6.33598497 C3.52600268,6.33598497 3.4305333,7.18407135 3.4305333,8.22946114 C3.4305333,9.27485092 4.2452054,10.8087257 4.94054076,10.8087257 C5.02646321,10.8087257 5.10602103,10.7848584 5.18080539,10.7418972 C5.61678225,11.7395523 6.21346592,12.6608318 6.92153054,13.3529849 C7.09178428,13.5184652 7.18725366,13.7444094 7.18725366,13.9830828 C7.18725366,14.6243189 6.66694551,15.144627 6.02570946,15.144627 L4.78778974,15.144627 C2.14328773,15.144627 0,17.2879148 0,19.9324168 L0,21.2594413 C0,22.0932072 0.676241489,22.7710399 1.51159862,22.7710399 L17.4899916,22.7710399 C18.3237576,22.7710399 18.9999991,22.0932072 18.9999991,21.2594413 L18.9999991,19.9324168 C19.0015903,17.2847325 16.8583025,15.1398536 14.2138005,15.1398536 L14.2138005,15.1398536 Z" id="icon-person" fill="#FFFFFF"></path>
    </g>
</svg>