<?xml version="1.0" encoding="UTF-8" standalone="no"?>
<svg width="54px" height="33px" viewBox="0 0 54 33" version="1.1" xmlns="http://www.w3.org/2000/svg" xmlns:xlink="http://www.w3.org/1999/xlink">
    <!-- Generator: Sketch 3.6.1 (26313) - http://www.bohemiancoding.com/sketch -->
    <title>business</title>
    <desc>Created with Sketch.</desc>
    <defs>
        <path id="path-1" d="M0,2.07285367e-14 L0,32.5862069 L54,32.5862069 L54,1.2437122e-14 L0,0 L0,2.07285367e-14 Z"></path>
    </defs>
    <g id="Page-1" stroke="none" stroke-width="1" fill="none" fill-rule="evenodd">
        <g id="business">
            <mask id="mask-2" fill="white">
                <use xlink:href="#path-1"></use>
            </mask>
            <g id="Clip-2"></g>
            <path d="M53.8447665,21.1017421 L50.3135344,15.6187102 C50.7997568,15.1970171 51.2732263,14.7584037 51.7330633,14.3014115 C51.9935448,14.0420651 52.0640522,13.6483778 51.9094051,13.3156618 L45.9634786,0.508063665 C45.8426926,0.248279686 45.6022932,0.0636157237 45.3193842,0.0135843341 C45.0358889,-0.0365929196 44.746237,0.0539886924 44.5429236,0.256302212 C42.0905569,2.69719222 39.2217424,4.60421959 36.0175413,5.9250191 C32.812754,7.24581861 29.4292795,7.91577247 25.9604926,7.91577247 L0.879509863,7.91577247 C0.579450415,7.91577247 0.300059448,8.06790873 0.138522803,8.31923259 C0.0469071927,8.46232528 0.00175901973,8.62642241 0.00175901973,8.79095712 L0,8.79095712 L0,18.90357 C0,19.0306176 0.0275579757,19.1553314 0.0813546624,19.2710017 L6.02654817,32.0780163 L6.02713451,32.0774329 C6.16682999,32.3777671 6.47099382,32.5862069 6.82528971,32.5862069 L53.1204901,32.5862069 C53.6059796,32.5862069 54,32.1948535 54,31.7110222 L54,21.5973883 C54,21.4134537 53.9420989,21.242501 53.8447665,21.1017421 L53.8447665,21.1017421 Z M1.75901973,12.7720263 L5.94577985,21.7906583 L5.94577985,22.7756786 L1.75901973,13.7571925 L1.75901973,12.7720263 Z M8.46191098,9.66614178 L22.0090014,9.66614178 L23.1472338,12.1179716 C20.9541759,12.4769432 18.2927791,13.2672349 18.2927791,14.9897442 C18.2927791,17.4921888 23.8584641,18.0368454 25.9489124,18.1525157 L27.1422607,20.7222037 L14.7879323,20.7222037 C14.1511671,18.7359721 11.0912057,17.3178812 7.17357561,17.3178812 C6.72282681,17.3178812 6.27515629,17.3394691 5.83540136,17.378269 L3.66638345,12.7071167 C6.17606484,12.2136585 7.94534552,11.0861289 8.46191098,9.66614178 L8.46191098,9.66614178 Z M25.1083942,16.3417586 C22.1114643,16.0819746 20.4216327,15.392475 20.0850736,14.9913487 C20.3467278,14.6962656 21.5142771,14.1082874 23.9156322,13.7726541 L25.1083942,16.3417586 Z M7.70479957,25.7882101 L27.6375714,25.7882101 L27.6375714,25.1118382 L7.70479957,25.1118382 L7.70479957,25.7882101 Z M7.38758968,20.7222037 L6.62549438,19.0802114 C6.80711317,19.0733558 6.98975805,19.0682505 7.17357561,19.0682505 C9.98727425,19.0682505 11.9752597,19.884652 12.7688708,20.7222037 L7.38758968,20.7222037 Z M7.70479957,23.3608854 L27.6375714,23.3608854 L27.6375714,22.4731565 L7.70479957,22.4731565 L7.70479957,23.3608854 Z M7.70479957,28.238873 L27.6375714,28.238873 L27.6375714,27.5385794 L7.70479957,27.5385794 L7.70479957,28.238873 Z M29.3965911,22.4731565 C29.3965911,22.4731565 32.3294633,22.470385 32.5401059,22.4657174 L32.5401059,30.8358376 L29.3965911,30.8358376 L29.3965911,22.4731565 Z M34.2991256,28.238873 L52.2409803,28.238873 L52.2409803,27.5385794 L34.2991256,27.5385794 L34.2991256,28.238873 Z M34.2991256,25.7882101 L52.2409803,25.7882101 L52.2409803,25.1118382 L34.2991256,25.1118382 L34.2991256,25.7882101 Z M34.2991256,23.3608854 L52.2409803,23.3608854 L52.2409803,22.472573 L34.2991256,22.472573 L34.2991256,23.3608854 Z M51.5114268,20.7222037 L41.6770407,20.7222037 C41.998355,20.603762 42.31835,20.4806527 42.6361462,20.3496668 C44.9048419,19.4146778 47.0141997,18.2026929 48.9422319,16.7332579 L51.5114268,20.7222037 Z M47.0183041,15.9674713 C46.6236974,14.6848882 47.5100967,12.9310181 49.1879084,11.6268471 L50.0518802,13.4883649 C49.0990779,14.3943269 48.0861757,15.2205012 47.0183041,15.9674713 L47.0183041,15.9674713 Z M44.8830008,2.35470329 L45.6137269,3.92901463 C44.0115531,4.72499507 42.5141875,5.06296221 41.4303382,5.03729013 C42.6465538,4.2367879 43.7997378,3.34161986 44.8830008,2.35470329 L44.8830008,2.35470329 Z M36.6903664,7.54206862 C37.5984603,7.16778131 38.4809019,6.748422 39.3368116,6.28690796 C39.9392758,6.62122849 40.7048892,6.78532562 41.5745778,6.78532562 C42.9809141,6.78532562 44.6585792,6.35517236 46.3523686,5.51937101 L48.4337287,10.002942 C45.7557677,11.9134701 44.5246005,14.799975 45.5146354,16.944615 C44.3837323,17.6249252 43.1990325,18.2232598 41.9628814,18.7326172 C39.3895822,19.7929034 36.7012137,20.4328093 33.9458559,20.6441664 L32.5968343,17.7382616 C36.0043487,17.0614521 36.7613135,15.8933723 36.7613135,14.9897442 C36.7613135,12.6951559 32.0173839,12.0507282 29.8757774,11.8770041 L28.7838659,9.52494532 C31.497447,9.25363808 34.1468239,8.59039397 36.6903664,7.54206862 L36.6903664,7.54206862 Z M30.7308075,13.7185385 C33.4202021,14.0392936 34.6925597,14.6854717 34.9674066,14.9901818 C34.7349228,15.2522996 33.7923814,15.7531969 31.8353254,16.0978738 L30.7308075,13.7185385 Z M26.9034738,9.64849222 L32.0437692,20.7211826 C31.9978881,20.7216202 31.9521536,20.7227871 31.9062725,20.7227871 L29.0799675,20.7227871 L23.9465616,9.66570419 L25.9604926,9.66570419 C26.2753572,9.66614178 26.5897819,9.65884857 26.9034738,9.64849222 L26.9034738,9.64849222 Z M6.37586017,9.66614178 C5.74891622,10.2507651 4.53959016,10.8024232 2.90370181,11.0643951 L2.2549167,9.66614178 L6.37586017,9.66614178 Z M1.75901973,17.9315315 L5.94577985,26.9494342 L5.94577985,27.7293696 L1.75901973,18.7108835 L1.75901973,17.9315315 Z M7.70479957,30.8358376 L27.6375714,30.8358376 L27.6375714,29.9892423 L7.70479957,29.9892423 L7.70479957,30.8358376 Z M34.2991256,30.8358376 L52.2409803,30.8358376 L52.2409803,29.9892423 L34.2991256,29.9892423 L34.2991256,30.8358376 Z" id="Fill-1" fill="#FFFFFF" mask="url(#mask-2)"></path>
        </g>
    </g>
</svg>