<?xml version="1.0" encoding="UTF-8" standalone="no"?>
<svg width="40px" height="40px" viewBox="0 0 40 40" version="1.1" xmlns="http://www.w3.org/2000/svg" xmlns:xlink="http://www.w3.org/1999/xlink">
    <!-- Generator: Sketch 3.6.1 (26313) - http://www.bohemiancoding.com/sketch -->
    <title>icon-keys</title>
    <desc>Created with Sketch.</desc>
    <defs></defs>
    <g id="Page-1" stroke="none" stroke-width="1" fill="none" fill-rule="evenodd">
        <g id="icon-keys" fill="#FFFFFF">
            <g id="Capa_1">
                <g id="Group">
                    <path d="M19.5485068,19.1686878 L8.69167421,30.0254299 C8.33828054,30.3788235 8.33828054,30.9518552 8.69167421,31.3053394 C8.86841629,31.481991 9.1,31.5704072 9.33158371,31.5704072 C9.56316742,31.5704072 9.79475113,31.481991 9.97149321,31.3053394 L20.8283258,20.4485973 C21.1817195,20.0952036 21.1817195,19.5221719 20.8283258,19.1687783 C20.4749321,18.8152941 19.9019005,18.8153846 19.5485068,19.1686878 L19.5485068,19.1686878 Z" id="Shape"></path>
                    <path d="M36.4892308,3.50850679 C34.2267873,1.24597285 31.2186425,0 28.0190045,0 C24.8193665,0 21.8113122,1.24597285 19.5487783,3.50850679 C16.0503167,7.00696833 15.0744796,12.2504977 17.0259729,16.7439819 L0.283257919,33.4871493 C0.114027149,33.6563801 0.0187330317,33.8857919 0.0181900452,34.1251584 L0.0079638009,39.0821719 C0.0079638009,39.0907692 0.00805429864,39.099457 0.00832579186,39.1080543 L0.00832579186,39.1086878 L0.00832579186,39.1090498 C0.014479638,39.3322172 0.102714932,39.5535747 0.273031674,39.7238914 C0.445520362,39.8963801 0.670316742,39.9846154 0.89638009,39.9887783 L0.896561086,39.9887783 L0.898099548,39.9887783 C0.901357466,39.9873303 0.907420814,39.9888688 0.911945701,39.9888688 L10.5250679,40 L10.5261538,40 C10.7658824,40 10.9960181,39.9047964 11.1657014,39.7352941 C11.3356561,39.5655204 11.4311312,39.3352036 11.4311312,39.0950226 L11.4311312,35.3244344 L15.201629,35.3244344 C15.7013575,35.3244344 16.1066063,34.919276 16.1066063,34.419457 L16.1066968,30.6488688 L19.8771946,30.6488688 C20.3769231,30.6488688 20.7821719,30.2437104 20.7821719,29.7438914 L20.7821719,25.4431674 L23.2537557,22.9715837 C24.7879638,23.6379186 26.4089593,23.9629864 28.018733,23.9628959 C31.1237104,23.9627149 34.1852489,22.7527602 36.4893213,20.4487783 C41.159638,15.778371 41.159638,8.17891403 36.4892308,3.50850679 L36.4892308,3.50850679 Z M35.2093213,19.1689593 C32.1068778,22.2716742 27.3879638,23.0372851 23.4669683,21.0743891 C23.118371,20.899819 22.6973756,20.9681448 22.4219005,21.2437104 L19.2371946,24.4284163 C19.0675113,24.5980995 18.9721267,24.8283258 18.9721267,25.0683258 L18.9721267,28.838914 L15.201629,28.838914 C14.7019005,28.838914 14.2966516,29.2440724 14.2966516,29.7438914 L14.2965611,33.5144796 L10.5260633,33.5144796 C10.0263348,33.5144796 9.62108597,33.919638 9.62108597,34.419457 L9.62108597,38.1889593 L3.09520362,38.181448 L7.4118552,33.8647964 C7.76524887,33.5114027 7.76524887,32.938371 7.4118552,32.5849774 C7.05837104,32.2315837 6.48552036,32.2315837 6.1319457,32.5849774 L1.82235294,36.8945701 L1.82733032,34.5024434 L18.7539367,17.5754751 C19.0295023,17.2999095 19.0977376,16.878914 18.9232579,16.5304977 C16.9602715,12.6095928 17.7260633,7.89076923 20.8286878,4.78823529 C22.7493213,2.86769231 25.3028959,1.80995475 28.0190045,1.80995475 C30.7351131,1.80995475 33.2886878,2.86769231 35.2093213,4.78832579 C37.1299548,6.70895928 38.1876923,9.26244344 38.1876923,11.9786425 C38.1876923,14.6948416 37.1299548,17.2484163 35.2093213,19.1689593 L35.2093213,19.1689593 Z" id="Shape"></path>
                    <path d="M27.4552036,6.52714932 L27.4552036,6.52714932 C25.7969231,8.18561086 25.7969231,10.8839819 27.4552036,12.5424434 C28.2844344,13.3716742 29.3736652,13.7861538 30.4628054,13.7861538 C31.5520362,13.7861538 32.641267,13.3715837 33.4704072,12.5423529 C35.1286878,10.8839819 35.1286878,8.18552036 33.4704072,6.52714932 C31.8119457,4.86886878 29.1136652,4.86886878 27.4552036,6.52714932 L27.4552036,6.52714932 Z M32.1905882,11.2626244 C31.2379186,12.2152036 29.6877828,12.2152036 28.7350226,11.2626244 C27.7823529,10.3099548 27.7823529,8.75972851 28.7350226,7.80696833 L28.7350226,7.80696833 C29.6876923,6.85429864 31.238009,6.85438914 32.1905882,7.80696833 C33.1432579,8.75972851 33.1432579,10.3099548 32.1905882,11.2626244 L32.1905882,11.2626244 Z" id="Shape"></path>
                </g>
            </g>
        </g>
    </g>
</svg>