<?xml version="1.0" encoding="UTF-8" standalone="no"?>
<svg width="22px" height="22px" viewBox="0 0 22 22" version="1.1" xmlns="http://www.w3.org/2000/svg" xmlns:xlink="http://www.w3.org/1999/xlink">
    <!-- Generator: Sketch 3.6.1 (26313) - http://www.bohemiancoding.com/sketch -->
    <title>icon-phone</title>
    <desc>Created with Sketch.</desc>
    <defs></defs>
    <g id="Page-1" stroke="none" stroke-width="1" fill="none" fill-rule="evenodd">
        <g id="icon-phone" fill="#FFFFFF">
            <g id="Capa_1">
                <path d="M11,1.375 C16.3066406,1.375 20.625,5.69335938 20.625,11 C20.625,16.3066406 16.3066406,20.625 11,20.625 C5.69335938,20.625 1.375,16.3066406 1.375,11 C1.375,5.69335938 5.69335938,1.375 11,1.375 L11,1.375 Z M11,0 C4.92529297,0 0,4.92529297 0,11 C0,17.074707 4.92529297,22 11,22 C17.074707,22 22,17.074707 22,11 C22,4.92529297 17.074707,0 11,0 L11,0 L11,0 Z M17.132457,14.6778672 L17.070668,14.4898789 C16.9256484,14.0575273 16.4476211,13.6063555 16.0071914,13.4854844 L14.381125,13.0410156 C13.9406953,12.9215195 13.3122773,13.0826523 12.9887227,13.40625 L12.4005664,13.9944062 C10.2628711,13.4156602 8.58575781,11.7385469 8.00834375,9.60085156 L8.5965,9.01269531 C8.91876563,8.69042969 9.07989844,8.06201172 8.96040234,7.62025 L8.51722266,5.99414062 C8.39772656,5.55371094 7.94384766,5.07568359 7.51149609,4.93066406 L7.32617188,4.868875 C6.89244531,4.72385547 6.2734375,4.87020703 5.95117188,5.19384766 L5.0703125,6.07470703 C4.91321875,6.23046875 4.8125,6.67760156 4.8125,6.67897656 C4.7829375,9.47465234 5.87868359,12.1669023 7.85524609,14.1447969 C9.8264375,16.1159883 12.5093203,17.2104023 15.295543,17.186168 C15.3103242,17.186168 15.7709062,17.0881562 15.928,16.9310195 L16.8088594,16.0501602 C17.131125,15.7292266 17.2761016,15.1102187 17.132457,14.6778672 L17.132457,14.6778672 Z" id="Shape"></path>
            </g>
        </g>
    </g>
</svg>