<?xml version="1.0" encoding="UTF-8" standalone="no"?>
<svg width="52px" height="36px" viewBox="0 0 52 36" version="1.1" xmlns="http://www.w3.org/2000/svg" xmlns:xlink="http://www.w3.org/1999/xlink">
    <!-- Generator: Sketch 3.6.1 (26313) - http://www.bohemiancoding.com/sketch -->
    <title>icon-commerce</title>
    <desc>Created with Sketch.</desc>
    <defs></defs>
    <g id="Page-1" stroke="none" stroke-width="1" fill="none" fill-rule="evenodd">
        <g id="icon-commerce" fill="#FFFFFF">
            <g id="Capa_1">
                <g id="Group">
                    <path d="M51.6914153,18.1190937 C51.5344237,17.9417039 51.3075847,17.8399033 51.0690678,17.8399033 L38.1547797,17.8399033 L37.8923559,16.2767855 C37.8261441,15.8831782 37.4814237,15.5944169 37.0772119,15.5944169 L34.0648475,15.5944169 C33.7973559,15.1800363 33.4291695,14.8209063 32.9696525,14.558574 L23.1801017,8.9687855 C25.0167373,8.3649426 26.3452712,6.65303927 26.3452712,4.63964955 C26.3452712,2.12378248 24.2719915,0.0770030211 21.7234407,0.0770030211 C19.175,0.0770030211 17.1017203,2.12378248 17.1017203,4.63964955 C17.1017203,5.35964955 17.2721525,6.04093051 17.5743475,6.64716616 C16.0710847,6.73439275 14.6359068,7.53291843 13.8125,8.90570393 L0.443983051,31.197861 C0.0121186441,31.9179698 -0.109728814,32.7610876 0.100694915,33.5717946 C0.311118644,34.3823927 0.828694915,35.0636737 1.55812712,35.4900181 C2.05422034,35.7799758 2.60771186,35.9283263 3.1694661,35.9283263 C3.43376271,35.9283263 3.6999322,35.8954804 3.96279661,35.8289184 C4.78388983,35.6211843 5.47399153,35.1101148 5.90585593,34.390006 L12.7528898,22.9723505 L16.6222627,25.2338248 L14.8321186,28.2191057 C14.4001441,28.9392145 14.2782966,29.7822236 14.4886102,30.5928218 C14.6990339,31.4034199 15.2166102,32.0847009 15.9460424,32.5110453 C16.6754746,32.9373897 17.5293983,33.0577885 18.3507119,32.8499456 C19.1719153,32.6421027 19.8619068,32.1310332 20.2937712,31.4108157 L23.7001017,25.7289063 C24.5912627,24.2424653 24.0914237,22.317281 22.5859576,21.4374018 L18.5835,19.0981631 L21.0006186,15.067577 L29.7601949,20.0480846 C30.503178,20.4705136 31.3684492,20.581994 32.1963729,20.3620785 C33.0244068,20.1421631 33.7160508,19.6169547 34.1439492,18.883577 C34.4484576,18.3616314 34.5848475,17.788568 34.5700847,17.2259456 L36.3764237,17.2259456 L37.675322,26.3170876 C37.7310678,26.7213535 38.0807458,27.0229486 38.4941017,27.0229486 L47.4453729,27.0229486 L47.4453729,28.8456798 L39.4847458,28.8456798 C39.0283136,28.8456798 38.6584746,29.2109003 38.6584746,29.6613897 L38.6584746,31.3877583 C37.7557458,31.7201329 37.109822,32.5773897 37.109822,33.582997 C37.109822,34.8757341 38.175161,35.927565 39.4847458,35.927565 C40.7943305,35.927565 41.8597797,34.8758429 41.8597797,33.582997 C41.8597797,32.5773897 41.2138559,31.7200242 40.3110169,31.3877583 L40.3110169,30.4770997 L48.2717542,30.4770997 C48.7281864,30.4770997 49.0980254,30.1118792 49.0980254,29.6613897 L49.0980254,27.0228399 L50.0289576,27.0228399 C50.4423136,27.0228399 50.7919915,26.7213535 50.8477373,26.3169789 L51.8877373,18.765571 C51.9199068,18.5322779 51.8482966,18.2965921 51.6914153,18.1190937 L51.6914153,18.1190937 Z M21.7233305,1.70842296 C23.3605593,1.70842296 24.6926186,3.02334743 24.6926186,4.63964955 C24.6926186,6.25595166 23.3605593,7.57087613 21.7233305,7.57087613 C20.0861017,7.57087613 18.7541525,6.25595166 18.7541525,4.63964955 C18.7541525,3.02334743 20.0861017,1.70842296 21.7233305,1.70842296 L21.7233305,1.70842296 Z M32.7119661,18.069281 C32.2831864,18.8039637 31.3290085,19.0573776 30.5849237,18.6342961 L21.117839,13.2515891 C20.7257458,13.0286284 20.2250254,13.1584894 19.9944407,13.542852 L16.7404746,18.9689547 C16.5081271,19.3565801 16.6379068,19.8568822 17.0305508,20.0864773 L21.7439322,22.8412931 C22.4655424,23.2629607 22.7050508,24.1856918 22.2780339,24.8980785 L18.8717034,30.5798792 C18.6646949,30.9250876 18.3339661,31.1700181 17.9404407,31.2696435 C17.5469153,31.3693776 17.1375254,31.3115166 16.7879576,31.1072628 C16.4382797,30.9029003 16.1902881,30.5763988 16.0894831,30.1879033 C15.9885678,29.7994079 16.0470678,29.3953595 16.2540763,29.0502598 L18.465178,25.3630332 C18.6975254,24.9754079 18.5677458,24.474997 18.1749915,24.2455106 L12.883661,21.1529909 C12.4913475,20.9237221 11.9842373,21.0516254 11.7517797,21.4393595 L4.48378814,33.5590695 C4.27688983,33.9041692 3.94616102,34.1490997 3.55263559,34.2487251 C3.15922034,34.3483505 2.74983051,34.2905982 2.40015254,34.0862356 C2.05047458,33.8818731 1.80237288,33.5553716 1.70145763,33.1667674 C1.60065254,32.7782719 1.65904237,32.3742236 1.86605085,32.0290151 L1.86605085,32.0290151 L15.2345678,9.73685801 C15.7990763,8.79541994 16.8081186,8.27129909 17.8454746,8.27129909 C18.3720847,8.27129909 18.9061864,8.40648943 19.3928051,8.6909003 L32.1422797,15.9708399 C32.8842712,16.394574 33.1398644,17.3359033 32.7119661,18.069281 L32.7119661,18.069281 Z M39.4847458,34.2960363 C39.0864831,34.2960363 38.7623644,33.9761692 38.7623644,33.5828882 C38.7623644,33.1896073 39.0863729,32.8697402 39.4847458,32.8697402 C39.8831186,32.8697402 40.2072373,33.1896073 40.2072373,33.5828882 C40.2072373,33.9760604 39.8831186,34.2960363 39.4847458,34.2960363 L39.4847458,34.2960363 Z M49.3074576,25.3914199 L39.2156017,25.3914199 L38.4003475,19.471432 L50.1227119,19.471432 L49.3074576,25.3914199 L49.3074576,25.3914199 Z" id="Shape"></path>
                    <path d="M48.430839,31.2383202 C47.1212542,31.2383202 46.0558051,32.2900423 46.0558051,33.5828882 C46.0558051,34.8756254 47.1212542,35.9274562 48.430839,35.9274562 C49.7404237,35.9274562 50.8057627,34.8757341 50.8057627,33.5828882 C50.8057627,32.2900423 49.7404237,31.2383202 48.430839,31.2383202 L48.430839,31.2383202 Z M48.430839,34.2960363 C48.0324661,34.2960363 47.7083475,33.9761692 47.7083475,33.5828882 C47.7083475,33.1896073 48.0323559,32.8697402 48.430839,32.8697402 C48.8291017,32.8697402 49.1532203,33.1896073 49.1532203,33.5828882 C49.1532203,33.9760604 48.8291017,34.2960363 48.430839,34.2960363 L48.430839,34.2960363 Z" id="Shape"></path>
                </g>
            </g>
        </g>
    </g>
</svg>